<svg width="16" height="14" viewBox="0 0 16 14" fill="none" xmlns="http://www.w3.org/2000/svg">
<path fill-rule="evenodd" clip-rule="evenodd" d="M3.30369e-05 7C3.30601e-05 6.73483 0.1045 6.48052 0.290452 6.29302C0.476405 6.10552 0.728612 6.00018 0.991589 6.00018L12.4798 6.00018L8.22201 1.70895C8.12982 1.61599 8.05669 1.50564 8.0068 1.38418C7.95691 1.26272 7.93123 1.13255 7.93123 1.00108C7.93123 0.869618 7.95691 0.73944 8.0068 0.617983C8.05669 0.496526 8.12982 0.386168 8.22201 0.293209C8.31421 0.20025 8.42365 0.126511 8.5441 0.0762018C8.66456 0.0258926 8.79366 -6.18345e-07 8.92404 -6.06947e-07C9.05441 -5.95549e-07 9.18351 0.0258926 9.30397 0.0762018C9.42442 0.126511 9.53387 0.20025 9.62606 0.293209L15.5754 6.29213C15.6677 6.385 15.741 6.49533 15.791 6.6168C15.841 6.73827 15.8667 6.86849 15.8667 7C15.8667 7.13151 15.841 7.26173 15.791 7.3832C15.741 7.50467 15.6677 7.615 15.5754 7.70787L9.62606 13.7068C9.43987 13.8945 9.18734 14 8.92404 14C8.66073 14 8.4082 13.8945 8.22201 13.7068C8.03583 13.519 7.93123 13.2644 7.93123 12.9989C7.93123 12.7334 8.03583 12.4788 8.22201 12.291L12.4798 7.99982L0.991589 7.99982C0.728612 7.99982 0.476405 7.89448 0.290452 7.70698C0.104499 7.51947 3.30137e-05 7.26517 3.30369e-05 7Z" fill="white"/>
</svg>
